inDegrees=yes
name=ik_imu_orientations_sensors
DataType=double
version=3
OpenSimVersion=4.4-2022-07-23-0e9fedc
endheader
time	r_x	r_y	r_z	t_x	t_y	t_z	sternoclavicular_r2	sternoclavicular_r3	unrotscap_r3	unrotscap_r2	acromioclavicular_r2	acromioclavicular_r3	acromioclavicular_r1	unrothum_r1	unrothum_r3	unrothum_r2	elv_angle	shoulder_elv	shoulder1_r2	shoulder_rot	elbow_flexion	pro_sup	deviation	flexion	wrist_hand_r1	wrist_hand_r3
26.5333	-2.308694847242608	-37.71037613599323	-9.224141563729162	0	0	0	-22.05098221952642	9.339755318539375	-9.339755318539375	22.05098221952642	-4.464875347973403	36.08355201434703	16.2193082956428	-16.2193082956428	-36.08355201434703	4.464875347973403	80.76806721268582	91.11955700909625	-80.76806721268582	35.05536215632312	46.41408103248557	-6.243656721729708e-15	0.13089969	0	9.374987811387696	0
26.55	-2.324952514165682	-37.66688216988685	-9.211664584542698	0	0	0	-22.0494720294011	9.339115673279379	-9.339115673279379	22.0494720294011	-4.464569565192655	36.08108078547404	16.21819749527192	-16.21819749527192	-36.08108078547404	4.464569565192655	80.78548855569335	91.11331656801981	-80.78548855569333	35.00381388061961	46.34917107355346	-6.243656721729708e-15	0.13089969	0	9.374987811387696	0
26.5667	-2.340892943474745	-37.65942159851387	-9.19307232142641	0	0	0	-22.05835944494142	9.342879963039097	-9.342879963039097	22.05835944494142	-4.46636908605563	36.09562388009583	16.2247345162157	-16.2247345162157	-36.09562388009583	4.46636908605563	80.74003715052601	91.15004134331221	-80.74003715052601	34.97932327423802	46.3158615283913	-6.243656721729708e-15	0.13089969	0	9.374987811387696	0
26.5833	-2.33265516777547	-37.66089952300153	-9.201593709890849	0	0	0	-22.10886039446073	9.364269781740536	-9.364269781740536	22.10886039446073	-4.476594501064961	36.17826208734722	16.26187982164119	-16.26187982164119	-36.17826208734722	4.476594501064961	80.66433708483203	91.35872248517371	-80.66433708483203	34.98290542349039	46.13956167231025	-6.243656721729708e-15	0.13089969	0	9.374987811387696	0
26.6	-2.353495180788141	-37.64739146807252	-9.226761221555192	0	0	0	-22.14866959401709	9.381131079780769	-9.381131079780769	22.14866959401709	-4.484655054193716	36.24340464238359	16.29116095180489	-16.29116095180489	-36.24340464238359	4.484655054193716	80.53752201430903	91.52322294108765	-80.53752201430903	34.93126991697447	46.03345332592809	-6.243656721729708e-15	0.13089969	0	9.374987811387696	0
26.6167	-2.390699255526797	-37.63034804499911	-9.253407551134567	0	0	0	-22.18835599105196	9.397940364468862	-9.397940364468862	22.18835599105196	-4.492690742309868	36.3083462471345	16.32035175619826	-16.32035175619826	-36.3083462471345	4.492690742309868	80.39725114981438	91.68721594970309	-80.39725114981439	34.85750527178172	45.88433549362524	-6.243656721729708e-15	0.13089969	0	9.374987811387696	0
26.6333	-2.39110942485504	-37.61703920139881	-9.260634748952739	0	0	0	-22.22763470728768	9.414576974811919	-9.414576974811919	22.22763470728768	-4.500643883357054	36.3726207355105	16.34924269637235	-16.34924269637235	-36.3726207355105	4.500643883357054	80.31447984730882	91.84952433069279	-80.3144798473088	34.89105419566947	45.67501604020214	-6.243656721729708e-15	0.13089969	0	9.374987811387696	0
26.65	-2.408507417999198	-37.57264601114622	-9.264348526437425	0	0	0	-22.24333590537522	9.421227261265631	-9.421227261265631	22.24333590537522	-4.503823056582845	36.39831369522718	16.36079150494049	-16.36079150494049	-36.39831369522718	4.503823056582845	80.18510572605624	91.91440516910652	-80.18510572605624	34.84226519702929	45.57323094025839	-6.243656721729708e-15	0.13089969	0	9.374987811387696	0
26.6667	-2.451277635657101	-37.54357383143871	-9.257380353507031	0	0	0	-22.25311362261874	9.425368640806878	-9.425368640806878	22.25311362261874	-4.505802845430591	36.41431365229148	16.36798337552573	-16.36798337552573	-36.41431365229148	4.505802845430591	80.09013988925206	91.95480886881114	-80.09013988925206	34.82676654845366	45.48517091471432	-6.243656721729708e-15	0.13089969	0	9.374987811387696	0
26.6833	-2.510746093743891	-37.52060844087384	-9.313182662741783	0	0	0	-22.28177497943081	9.437508238810137	-9.437508238810137	22.28177497943081	-4.511606187168192	36.46121421885282	16.38906485741521	-16.38906485741521	-36.46121421885282	4.511606187168192	79.91725733816038	92.07324396208705	-79.91725733816037	34.75761858197961	45.46165378570045	-6.243656721729708e-15	0.13089969	0	9.374987811387696	0
26.7	-2.550773747504755	-37.52303021548355	-9.35510940018599	0	0	0	-22.31694004255552	9.452402499849219	-9.452402499849219	22.31694004255552	-4.51872639713854	36.51875725125456	16.4149300544562	-16.4149300544562	-36.51875725125456	4.51872639713854	79.71725744147858	92.21855381460159	-79.71725744147859	34.73043208561187	45.45874490807608	-6.243656721729708e-15	0.13089969	0	9.374987811387696	0
26.7167	-2.56429254047558	-37.51594879981837	-9.356932245720337	0	0	0	-22.34048798740971	9.462376297887015	-9.462376297887015	22.34048798740971	-4.523494376969469	36.55729038708126	16.43225043381693	-16.43225043381693	-36.55729038708126	4.523494376969469	79.51024052271023	92.31585915375734	-79.51024052271023	34.73115646695189	45.44785529590233	-6.243656721729708e-15	0.13089969	0	9.374987811387696	0
26.7333	-2.592204240781043	-37.52494377810352	-9.384068305809789	0	0	0	-22.3594357410817	9.470401672057227	-9.470401672057227	22.3594357410817	-4.527330911661092	36.58829591093374	16.44618720340191	-16.44618720340191	-36.58829591093374	4.527330911661092	79.36981306480455	92.3941554810466	-79.36981306480455	34.75394910893495	45.46330687338746	-6.243656721729708e-15	0.13089969	0	9.374987811387696	0
26.75	-2.613502599060625	-37.53493648858377	-9.426694130617527	0	0	0	-22.37414864013785	9.476633361686414	-9.476633361686414	22.37414864013785	-4.530309974436575	36.61237164838114	16.45700908169008	-16.45700908169008	-36.61237164838114	4.530309974436575	79.27086399864193	92.45495244831861	-79.27086399864194	34.7674611705819	45.47405490164466	-6.243656721729708e-15	0.13089969	0	9.374987811387696	0
26.7667	-2.637658392527338	-37.50376372022503	-9.457881864814773	0	0	0	-22.3660520813777	9.473204041532364	-9.473204041532364	22.3660520813777	-4.528670585984317	36.59912268757519	16.45105376499002	-16.45105376499002	-36.59912268757519	4.528670585984317	79.26531664394199	92.42149566892535	-79.26531664394199	34.76956123452501	45.47643949978649	-6.243656721729708e-15	0.13089969	0	9.374987811387696	0
26.7833	-2.6546790235707	-37.4774162194459	-9.472365997303971	0	0	0	-22.35898521962756	9.470210852432707	-9.470210852432707	22.35898521962756	-4.527239690230941	36.58755869142298	16.44585582830552	-16.44585582830552	-36.58755869142298	4.527239690230941	79.3097093155971	92.39229382631778	-79.3097093155971	34.81710300344672	45.44554035335183	-6.243656721729708e-15	0.13089969	0	9.374987811387696	0
26.8	-2.665223425146551	-37.47313274762383	-9.494056115370576	0	0	0	-22.35328707249525	9.467797386245351	-9.467797386245351	22.35328707249525	-4.526085931345875	36.57823441795582	16.4416646315537	-16.4416646315537	-36.57823441795582	4.526085931345875	79.33809292569356	92.36874781656184	-79.33809292569356	34.86660478503242	45.45462722289932	-6.243656721729708e-15	0.13089969	0	9.374987811387696	0
26.8167	-2.680243916226383	-37.4636546685063	-9.517909114657638	0	0	0	-22.3582874433556	9.469915307337153	-9.469915307337153	22.3582874433556	-4.52709840472973	36.58641687170026	16.44534258819841	-16.44534258819841	-36.58641687170026	4.52709840472973	79.35089194520704	92.38941045975572	-79.35089194520704	34.92661708542037	45.4101619838458	-6.243656721729708e-15	0.13089969	0	9.374987811387696	0
26.8333	-2.696417660980171	-37.45508326522197	-9.548041996669021	0	0	0	-22.37801940742571	9.478272836019292	-9.478272836019292	22.37801940742571	-4.531093726074904	36.61870565343255	16.4598561733687	-16.4598561733687	-36.61870565343255	4.531093726074904	79.28248447138509	92.47094731861708	-79.28248447138508	34.97113886820689	45.37509113568603	-6.243656721729708e-15	0.13089969	0	9.374987811387696	0
26.85	-2.743084132563466	-37.45435894256633	-9.61125947340236	0	0	0	-22.42371356029499	9.497626722528214	-9.497626722528214	22.42371356029499	-4.540345862540367	36.69347816584926	16.49346590309941	-16.49346590309941	-36.69347816584926	4.540345862540367	79.11610258428409	92.65976570892295	-79.11610258428409	34.95376290122692	45.35989184170114	-6.243656721729708e-15	0.13089969	0	9.374987811387696	0
26.8667	-2.778622466483442	-37.48074857617733	-9.670178899042448	0	0	0	-22.49911804533585	9.529564503493743	-9.529564503493743	22.49911804533585	-4.555613736915932	36.81686775598178	16.54892867467014	-16.54892867467014	-36.81686775598178	4.555613736915932	78.88146982968399	92.9713537917131	-78.88146982968401	34.91277384118208	45.36762956962508	-6.243656721729708e-15	0.13089969	0	9.374987811387696	0
26.8833	-2.801517372504352	-37.52059587223261	-9.737592928847235	0	0	0	-22.62010767636006	9.580810000796168	-9.580810000796168	22.62010767636006	-4.580111676079933	37.0148514830011	16.63792099739852	-16.63792099739852	-37.0148514830011	4.580111676079933	78.49120882365811	93.47130982414136	-78.49120882365811	34.81833336030052	45.30343486088474	-6.243656721729708e-15	0.13089969	0	9.374987811387696	0
26.9	-2.787957268856928	-37.58783839053542	-9.790693740097689	0	0	0	-22.78291221297718	9.649766318551736	-9.649766318551736	22.78291221297718	-4.613076283045889	37.28125984099223	16.75766972083561	-16.75766972083561	-37.28125984099223	4.613076283045889	78.04737441156358	94.14405433538072	-78.04737441156358	34.7890887706662	45.09910660844223	-6.243656721729708e-15	0.13089969	0	9.374987811387696	0
26.9167	-2.790521415907825	-37.66664700031943	-9.865775425788774	0	0	0	-22.97898385970059	9.73281301402629	-9.73281301402629	22.97898385970059	-4.652776803103301	37.6021054791887	16.90188762707588	-16.90188762707588	-37.6021054791887	4.652776803103301	77.46294100897708	94.954265935645	-77.46294100897707	34.73724941612178	44.86569187835759	-6.243656721729708e-15	0.13089969	0	9.374987811387696	0
26.9333	-2.80241078242077	-37.72635312444171	-9.943543861488752	0	0	0	-23.16659485726099	9.812276177836269	-9.812276177836269	23.16659485726099	-4.690764213808043	37.90910637019388	17.0398824147362	-17.0398824147362	-37.90910637019388	4.690764213808043	76.9176624139653	95.72951625409111	-76.9176624139653	34.68745612423395	44.65452019480385	-6.243656721729708e-15	0.13089969	0	9.374987811387696	0
26.95	-2.816340672127377	-37.74954747283081	-9.990604180382329	0	0	0	-23.27981923873758	9.86023268193013	-9.86023268193013	23.27981923873758	-4.713689847895976	38.09438328065663	17.12316311087345	-17.12316311087345	-38.09438328065663	4.713689847895976	76.56748565108553	96.19738455039042	-76.56748565108555	34.68880962904121	44.4525398149211	-6.243656721729708e-15	0.13089969	0	9.374987811387696	0
26.9667	-2.865200590440761	-37.7397995517887	-10.00671215899143	0	0	0	-23.30907601028304	9.872624469512409	-9.872624469512409	23.30907601028304	-4.719613749005421	38.14225816565371	17.14468254219434	-17.14468254219434	-38.14225816565371	4.719613749005421	76.39929980041366	96.31828002961213	-76.39929980041364	34.68134601650548	44.26606444864219	-6.243656721729708e-15	0.13089969	0	9.374987811387696	0
26.9833	-2.901800873291481	-37.72755537346324	-10.02002927888133	0	0	0	-23.29074335434777	9.864859621712441	-9.864859621712441	23.29074335434777	-4.715901759093434	38.11225916890083	17.13119819961349	-17.13119819961349	-38.11225916890083	4.715901759093434	76.36055855216934	96.24252542281083	-76.36055855216934	34.69708743793478	44.11309027791155	-6.243656721729708e-15	0.13089969	0	9.374987811387696	0
27	-2.933906135358604	-37.72603439772838	-10.02613645708625	0	0	0	-23.24806403585633	9.846782676753543	-9.846782676753543	23.24806403585633	-4.707260065263036	38.04242003913368	17.09980599143115	-17.09980599143115	-38.04242003913368	4.707260065263036	76.39454551072117	96.06616499787947	-76.39454551072116	34.73965192473626	44.04902370525603	-6.243656721729708e-15	0.13089969	0	9.374987811387696	0
27.0167	-2.95558523813236	-37.71676293426011	-10.06880567921167	0	0	0	-23.21718385323939	9.833703288862212	-9.833703288862212	23.21718385323939	-4.701007456434337	37.99188865397461	17.07709248157006	-17.07709248157006	-37.99188865397461	4.701007456434337	76.42562642469831	95.93856122348052	-76.42562642469829	34.73891070541271	44.05137862289956	-6.243656721729708e-15	0.13089969	0	9.374987811387696	0
